<svg id="wave" style="transform:rotate(180deg); transition: 0.3s" viewBox="0 0 100% 40" version="1.1" xmlns="http://www.w3.org/2000/svg"><rect width="100%" height="100%" fill="#f1f2f6"/><defs><linearGradient id="sw-gradient-0" x1="0" x2="0" y1="1" y2="0"><stop stop-color="rgba(248, 231, 28, 1)" offset="10%"></stop><stop stop-color="rgba(255, 179, 11, 1)" offset="100%"></stop></linearGradient></defs><path style="transform:translate(0, 0px); opacity:1" fill="url(#sw-gradient-0)" d="M0,99L160,55L320,11L480,77L640,44L800,11L960,11L1120,22L1280,55L1440,22L1600,77L1760,66L1920,11L2080,22L2240,77L2400,0L2560,33L2720,33L2880,0L3040,11L3200,77L3360,33L3520,11L3680,55L3840,99L3840,110L3680,110L3520,110L3360,110L3200,110L3040,110L2880,110L2720,110L2560,110L2400,110L2240,110L2080,110L1920,110L1760,110L1600,110L1440,110L1280,110L1120,110L960,110L800,110L640,110L480,110L320,110L160,110L0,110Z"></path></svg>
